# xmcd
#
# Track frame offsets: 
#        150
#        10272
#        26710
#        44335
#        62137
#        80157
#        92812
#        101905
#        121017
#        134870
#        147155
#        157785
#        169760
#        178742
#        202257
#        211655
#        228860
#        239490
#        252985
#        267897
#        286835
#
# Disc length: 4005 seconds
#
# Revision: 1
# Processed by: cddbd v1.5.2PL0 Copyright (c) Steve Scherf et al.
# Submitted via: ExactAudioCopy v1.1
#
DISCID=310fa315
DTITLE=Jerry Lee Lewis - Last Man Standing (The Duets) 
DYEAR=2006
DGENRE=Rock
TTITLE0=Rock And Roll (with Jimmy Page)
TTITLE1=Before The Night Is Over (with B.B. King)
TTITLE2=Pink Cadillac (with Bruce Springsteen)
TTITLE3=Evening Gown (with Mick Jagger and Ronie Wood)
TTITLE4=You Don't Have To Go (with Neil Young)
TTITLE5=Twilight (with Robbie Robertson)
TTITLE6=Travelin' Band (with John Fogerty)
TTITLE7=That Kind Of Fool (with Keith Richards)
TTITLE8=Sweet Little Sixteen (with Ringo Starr)
TTITLE9=Just A Bummin' Around (with Merle Haggard)
TTITLE10=Honky Tonk Woman (with Kid Rock)
TTITLE11=What's Made Milwaukee Famous (with Rod Stewart)
TTITLE12=Don't Be Ashamed Of Your Age (with George Jones)
TTITLE13=Couple More Years (with Willie Nelson)
TTITLE14=Ol' Glory (with Toby Keith)
TTITLE15=Trouble In Mind (with Eric Clapton)
TTITLE16=I Saw Her Standing There (with Little Richard)
TTITLE17=Lost Highway (with Delaney Bramlett)
TTITLE18=Hadacol Boogie (with Buddy Guy)
TTITLE19=What Makes The Irish Heart Beat (with Don Henley)
TTITLE20=The Pilgrim (with Kris Kristofferson)
EXTD=
EXTT0=
EXTT1=
EXTT2=
EXTT3=
EXTT4=
EXTT5=
EXTT6=
EXTT7=
EXTT8=
EXTT9=
EXTT10=
EXTT11=
EXTT12=
EXTT13=
EXTT14=
EXTT15=
EXTT16=
EXTT17=
EXTT18=
EXTT19=
EXTT20=
PLAYORDER=
